<?xml version="1.0" encoding="utf-8"?>
<!-- Generator: Adobe Illustrator 23.0.3, SVG Export Plug-In . SVG Version: 6.00 Build 0)  -->
<svg version="1.1" id="Layer_1" xmlns="http://www.w3.org/2000/svg" xmlns:xlink="http://www.w3.org/1999/xlink" x="0px" y="0px"
	 viewBox="0 0 374 75.7" style="enable-background:new 0 0 374 75.7;" xml:space="preserve">
<style type="text/css">
	.st0{fill:#2CBFC6;}
	.st1{fill:#FF4F4F;}
	.st2{fill:#FE9249;}
	.st3{fill:#960842;}
	.st4{fill:#E74C3C;}
	.st5{fill:#C84233;}
	.st6{opacity:0.2;fill:#00B3B8;}
	.st7{fill:#00B3B8;}
	.st8{opacity:0.3;fill:#FFFFFF;}
	.st9{fill:#EC7E65;}
	.st10{fill:#FFFFFF;}
</style>
<g>
	<g>
		<path class="st0" d="M128.2,75.7H122c-2.6,0-4.6-0.9-6.2-2.6c-1.6-1.7-2.3-3.8-2.1-6.3v0l0-0.6c1.5-11.2,1.2-17.5-0.9-18.8
			c-0.7-0.4-1.5-0.6-2.6-0.6c-1.8-0.1-2.9-0.1-3.1-0.1l-2.3,17.7h5.3l-0.2,1.3H91.3l0.2-1.3h5.3l3.4-26.4h0c0-0.3,0-0.4,0-0.4
			l2.2-16.8c0.2-0.9,0.2-1.8,0.1-2.6c-0.1-0.4-0.2-1-0.3-1.6h-4.6l0.2-1.3H112v0c0.3,0,0.6,0,0.7,0h6.2c2.6,0,4.7,0.9,6.4,2.7
			c1.6,1.8,2.3,4,1.9,6.5l-1.7,13.1c-0.3,2.2-1.3,4.1-2.9,5.8c-1.6,1.7-3.6,2.7-5.8,3.2c2.2,0.4,3.9,1.5,5.1,3.1
			c1.3,1.7,1.8,3.7,1.5,5.9l-1.1,8.5h0l-0.6,4.4c-0.4,3.4,0.4,5.5,2.5,6.2l3.7,0.9L128.2,75.7z M119.2,22.7c0.5-3.8-0.2-5.7-2.2-5.9
			v0h-5.8l-0.5,4.2c-0.1,0.6-0.2,1.1-0.3,1.8l-2.2,17c-0.1,0.6-0.1,1.2-0.2,1.8l-0.6,4.2h5.8v0c2-0.2,3.2-2.2,3.7-5.9L119.2,22.7z"
			/>
		<path class="st0" d="M140.4,46.7l-1.5,11.9c-0.5,4,0.3,5.9,2.5,5.9h2.2c2.2,0,3.6-2,4.1-5.9l0.7-5.4h8.2l-0.4,3.4
			c-0.3,2.5-1.6,4.7-3.6,6.5c-2.1,1.8-4.4,2.7-7,2.7h-6.2c-2.6,0-4.7-0.9-6.4-2.7c-1.6-1.8-2.3-4-1.9-6.5l2.5-19.4
			c0.3-2.5,1.6-4.7,3.6-6.5c2.1-1.8,4.4-2.7,7-2.7h6.2c2.6,0,4.7,0.9,6.4,2.7c1.6,1.8,2.2,4,1.9,6.5l-1.2,9.5H140.4z M146,29.3
			c-2.2,0-3.6,2-4.1,6l-1.3,10.2h8.8l1.3-10.2c0.5-4-0.3-6-2.5-6H146z"/>
		<path class="st0" d="M178.6,65.8h-6.2c-2.6,0-4.7-0.9-6.4-2.7c-1.6-1.8-2.3-4-1.9-6.5l3.6-27.3h-4l0.2-1.3h4l1.8-13.6l8.3-1.3
			L176,28h6.7l-0.2,1.3h-6.7l-3.8,29.3c-0.4,3.4,0.4,5.5,2.5,6.2l3.8,0.9L178.6,65.8z"/>
		<path class="st0" d="M205,28.4c1.5,0.3,2.7,0.9,3.6,1.8l-1.3,10.4h-8.2l0.7-5.4c0.5-3.8-0.7-5.3-3.6-4.3c-0.9,0.3-1.6,0.7-2.3,1.3
			l-0.9,6.9v0l-3.3,25.3h5.3l-0.2,1.3H176l0.2-1.3h5.3l4.6-35.2h-5.3l0.2-1.3h13.5l-0.2,1.8c2.2-1.2,3.9-1.8,5.2-1.8h1.3
			C202.1,28,203.5,28.1,205,28.4z"/>
		<path class="st0" d="M227.5,28c2.6,0,4.7,0.9,6.4,2.7c1.6,1.8,2.2,4,1.9,6.5l-2.5,19.4c-0.3,2.5-1.6,4.7-3.6,6.5
			c-2.1,1.8-4.4,2.7-7,2.7h-6.2c-2.6,0-4.7-0.9-6.4-2.7c-1.6-1.8-2.3-4-1.9-6.5l2.5-19.4c0.3-2.5,1.6-4.7,3.6-6.5
			c2.1-1.8,4.4-2.7,7-2.7H227.5z M227.9,35.3c0.5-4-0.3-6-2.5-6h-2.2c-2.2,0-3.6,2-4.1,6l-3,23.3c-0.5,4,0.3,5.9,2.5,5.9h2.2
			c2.2,0,3.6-2,4.1-5.9L227.9,35.3z"/>
		<path class="st0" d="M262.5,28.4c1.5,0.3,2.7,0.9,3.6,1.8l-1.3,10.4h-8.2l0.7-5.4c0.5-3.8-0.7-5.3-3.6-4.3
			c-0.9,0.3-1.6,0.7-2.3,1.3l-0.9,6.9v0l-3.3,25.3h5.3l-0.2,1.3h-18.9l0.2-1.3h5.3l4.6-35.2h-5.3l0.2-1.3h13.5l-0.2,1.8
			c2.2-1.2,3.9-1.8,5.2-1.8h1.3C259.5,28,261,28.1,262.5,28.4z"/>
		<path class="st0" d="M281.5,65.7c-0.2-0.4-0.3-0.9-0.5-1.5c-0.5,0.5-0.9,0.8-1.1,1c-0.5,0.3-1.1,0.5-1.7,0.5h-5.5
			c-2.6,0-4.7-0.9-6.4-2.7c-1.6-1.8-2.3-4-1.9-6.5l0.4-2.5c0.4-2.8,1.5-5,3.2-6.6c1.4-1.2,4.6-2.7,9.6-4.3c2.5-0.8,4.2-1.4,5-1.7
			c0.4-0.2,0.7-0.4,0.8-0.9l0.7-5.3c0.5-4-0.3-6-2.5-6h-2.2c-2.2,0-3.6,2-4.1,6l-0.7,5.4h-8.2l0.4-3.4c0.3-2.5,1.6-4.7,3.6-6.5
			c2.1-1.8,4.4-2.7,7-2.7h6.2c2.6,0,4.7,0.9,6.4,2.7c1.6,1.8,2.2,4,1.9,6.5l-1.7,13.5l-1.2,9.6c-0.2,0.9-0.2,1.8-0.2,2.6
			c0.1,0.8,0.3,1.8,0.7,2.8L281.5,65.7z M277.2,64.5c2.2,0,3.6-2,4.1-5.9l2.1-15.6c0.1-0.1-1.4,0.4-4.6,1.6c-2.8,1.1-4.4,2-4.7,2.9
			c-0.1,0.1-0.1,0.2-0.1,0.4l-1.4,10.7c-0.5,4,0.3,5.9,2.5,5.9H277.2z"/>
		<path class="st0" d="M343.1,64.5l-0.2,1.3h-13.5l0.2-1.3l3.8-29.4c0.5-4-0.4-6-2.6-6h-2.1c-0.1,0-0.2,0-0.4,0c0,0,0,0,0,0
			c-0.1,0-0.2,0-0.3,0c0,0,0,0-0.1,0c-0.1,0-0.2,0.1-0.2,0.1l-0.1,0c-0.1,0-0.2,0.1-0.2,0.1l-0.1,0c-0.1,0-0.2,0.1-0.2,0.1
			c0,0-0.1,0-0.1,0c-0.1,0.1-0.1,0.1-0.2,0.2c0,0-0.1,0-0.1,0.1c-0.1,0.1-0.1,0.1-0.2,0.2c-0.1,0-0.1,0.1-0.1,0.1
			c-0.1,0.1-0.1,0.1-0.2,0.2c-0.1,0.1-0.1,0.1-0.1,0.1c-0.1,0.1-0.1,0.2-0.2,0.2l-0.1,0.1c-0.1,0.1-0.1,0.2-0.2,0.3
			c-0.1,0.1-0.1,0.1-0.1,0.1c-0.1,0.1-0.1,0.3-0.2,0.4v0c-0.4,0.9-0.7,2.1-0.9,3.5l-3.8,29.4h5.3l-0.2,1.3h-13.5l0.2-1.3l3.8-29.4
			c0.5-3.9-0.4-5.9-2.6-5.9h-2.2c-2.2,0-3.6,2-4.1,6l-3.8,29.4h5.3l-0.2,1.3h-18.9l0.2-1.3h5.3l4-31c0.2-0.9,0.2-1.8,0.1-2.6
			c0-0.5-0.1-1-0.3-1.6h-4.6l0.2-1.3h11.3v0.1h1c0.2,0.4,0.3,0.9,0.5,1.5l0,0c0.1,0,0.2-0.2,0.5-0.4c0.3-0.3,0.6-0.6,0.9-0.8
			c0.5-0.3,1.1-0.5,1.7-0.5h5.2c2,0,3.7,0.5,5.2,1.6c1.8-1.1,3.6-1.6,5.6-1.6h6.2c2.6,0,4.8,0.9,6.4,2.7c1.6,1.8,2.3,3.9,1.9,6.4
			l-3.6,27.4H343.1z"/>
		<path class="st0" d="M363.2,65.7c-0.2-0.4-0.3-0.9-0.5-1.5c-0.5,0.5-0.9,0.8-1.1,1c-0.5,0.3-1.1,0.5-1.7,0.5h-5.5
			c-2.6,0-4.7-0.9-6.4-2.7c-1.6-1.8-2.3-4-1.9-6.5l0.4-2.5c0.4-2.8,1.5-5,3.2-6.6c1.4-1.2,4.6-2.7,9.6-4.3c2.5-0.8,4.2-1.4,5-1.7
			c0.4-0.2,0.7-0.4,0.8-0.9l0.7-5.3c0.5-4-0.3-6-2.5-6h-2.2c-2.2,0-3.6,2-4.1,6l-0.7,5.4h-8.2l0.4-3.4c0.3-2.5,1.6-4.7,3.6-6.5
			c2.1-1.8,4.4-2.7,7-2.7h6.2c2.6,0,4.7,0.9,6.4,2.7c1.6,1.8,2.2,4,1.9,6.5l-1.7,13.5l-1.2,9.6c-0.2,0.9-0.2,1.8-0.2,2.6
			c0.1,0.8,0.3,1.8,0.7,2.8L363.2,65.7z M358.9,64.5c2.2,0,3.6-2,4.1-5.9L365,43c0.1-0.1-1.4,0.4-4.6,1.6c-2.8,1.1-4.4,2-4.7,2.9
			c-0.1,0.1-0.1,0.2-0.1,0.4l-1.4,10.7c-0.5,4,0.3,5.9,2.5,5.9H358.9z"/>
	</g>
</g>
<g>
	<g>
		<path class="st1" d="M23.5,71.3c-0.5-0.2-0.9-0.7-1.1-1.3c-1.2,3.5-1.6,5.5-1.1,5.7c0.5,0.3,1.9-1.3,3.9-4.3
			C24.5,71.5,24,71.5,23.5,71.3z"/>
		<path class="st1" d="M64.1,62c-3.8,7.7-19.8,7.4-35.7-0.6c-15.9-8-25.6-20.6-21.8-28.3c3.8-7.7,19.8-7.4,35.7,0.6
			S67.9,54.4,64.1,62z"/>
		<path class="st1" d="M46.8,75.6c-6.9,0.7-15.1-0.8-23.1-4.8c-15.9-8-24.6-22.7-19.5-33c5.1-10.2,22.2-12.1,38.1-4.1
			s24.6,22.7,19.5,33C59.2,71.8,53.7,74.8,46.8,75.6L46.8,75.6z"/>
		<path class="st2" d="M28.1,55c0,0,2-3.6,2.9-5c0.9-1.4,1.9-2,1.9-2L15.2,36.5c0,0-3.4-1.1-6.7,3.2C5.3,43.9,23.8,57.4,28.1,55z"/>
		<path class="st2" d="M23.7,70.8c-1.6-0.8-3.1-1.7-4.5-2.6c0.8,2,2,3.6,3.6,4.4c1.6,0.8,3.6,0.9,5.7,0.3
			C26.9,72.3,25.3,71.6,23.7,70.8z"/>
		<path class="st2" d="M59.5,46.7c0.1-0.1,0.2-0.3,0.2-0.4c0.2-1.4-3.3-5.5-3.3-5.5S30,28.4,27.6,27c-0.1,0-0.1-0.1-0.2-0.1
			c-0.1-0.1-0.3-0.2-0.5-0.3c-2.3-0.6-5.4,0.5-5.4,0.5l-0.3,0.5c-5.1-0.9-8.7-0.4-9.7,1.6c-2.1,4.2,8,13.5,22.5,20.8
			c14.6,7.3,28.1,9.8,30.2,5.6C65.3,53.7,63.4,50.4,59.5,46.7z"/>
		<g>
			<path class="st0" d="M24.6,68.9C17.5,65.4,11.5,61.1,7.3,57c3.6,5.3,9.3,10.2,16.4,13.8c7.1,3.6,14.5,5.2,20.9,4.9
				C38.7,74.8,31.7,72.5,24.6,68.9z"/>
		</g>
		<path class="st0" d="M64.3,61.7C64.3,61.7,64.3,61.7,64.3,61.7c-2.6,5.1-17.5,2.8-33.4-5.2S4.2,37.9,6.7,32.9c0,0,0,0,0-0.1
			c-2.7,0.5-4.7,1.7-5.6,3.5C-2.1,42.8,9.5,55.2,27.1,64s34.4,10.7,37.7,4.2C65.7,66.4,65.5,64.2,64.3,61.7z"/>
		<path class="st2" d="M27.1,64c-17-8.5-28.4-20.4-26.2-27c-0.1,0.2-0.3,0.4-0.4,0.6c-3.3,6.5,8.3,18.9,25.9,27.7
			C44,74.1,60.9,76,64.1,69.5c0.1-0.2,0.2-0.4,0.3-0.7C60.4,74.6,44.1,72.5,27.1,64z"/>
		<polygon class="st1" points="54.8,27 40.2,19.7 30,32.6 50.6,42.9 		"/>
		<path class="st1" d="M57.3,43.5c-1.4,2.8-9.7,1.5-18.5-2.9c-8.8-4.4-14.8-10.3-13.4-13.1c1.4-2.8,9.7-1.5,18.5,2.9
			C52.8,34.8,58.7,40.7,57.3,43.5z"/>
		<path class="st0" d="M57.5,42.2C57.5,42.2,57.5,42.2,57.5,42.2c1.5,1.9,2.2,3.5,1.6,4.6c-1.5,3-11.1,1.2-21.4-3.9
			C27.4,37.7,20.3,31,21.8,28c0.6-1.1,2.2-1.6,4.6-1.4c0,0,0,0,0,0c-3.9-0.4-6.7,0.3-7.7,2.1c-2,4,5.7,11.8,17.2,17.6
			c11.5,5.8,22.4,7.2,24.4,3.3C61.3,47.8,60.1,45.1,57.5,42.2z"/>
		<path class="st0" d="M52.8,34.7c-0.9,1.4-5.4,0.7-10.1-1.7s-8-5.5-7.4-7.1c-2.1-0.2-3.5,0.1-4,1c-1,2,3.3,6.3,9.7,9.5
			c6.4,3.2,12.4,4.1,13.4,2.1C54.8,37.6,54.2,36.2,52.8,34.7z"/>
		<path class="st0" d="M54.8,27.5c-0.5,0.9-4.2,0-8.3-2.1c-4.1-2.1-7.1-4.5-6.7-5.4s4.2,0,8.3,2.1C52.3,24.1,55.3,26.5,54.8,27.5z"
			/>
		<polygon class="st0" points="56.2,21.6 43.7,15.4 39.8,19.9 54.8,27.5 		"/>
		<path class="st1" d="M56.2,21.6c-0.4,0.8-3.5,0-6.9-1.7c-3.4-1.7-5.9-3.7-5.5-4.5c0.4-0.8,3.5,0,6.9,1.7
			C54.1,18.9,56.6,20.9,56.2,21.6z"/>
		<path class="st3" d="M52.3,14.7l-1-0.5L49.5,18l0,0c0,0.1,0.2,0.2,0.4,0.4c0.3,0.1,0.5,0.2,0.5,0.1l0,0L52.3,14.7z"/>
		<path class="st4" d="M51.3,0.3l-2.7,11.5c-0.5,0.9,0.9,2.5,3,3.6c2.1,1.1,4.2,1.2,4.6,0.3l7.6-9L51.3,0.3z"/>
		<path class="st5" d="M57.8,3.6l-6,11.9c2,0.9,3.9,1,4.3,0.1l7.6-9L57.8,3.6z"/>
		<path class="st6" d="M51.5,71.8c4.3-0.3,7.4-1.7,8.7-4.2c0.1-0.2,0.2-0.4,0.3-0.7l0,0c0.1-0.2,0.3-0.4,0.4-0.6
			c0.9-1.8,0.8-4-0.1-6.4c0,0,0,0,0,0.1c0,0.1-0.1,0.1-0.1,0.2c0.9-2,1.1-4.2,0.6-6.5c0.5-1.8-0.7-4.3-3.1-7
			c-0.1-1.5-0.9-3.3-2.4-5.2c-0.1-0.1-0.1-0.2-0.2-0.3c-0.1-1.2-1-2.7-2.5-4.3c-0.1-0.8-0.6-1.8-1.4-2.8c0,0,0,0-0.1,0.1l2.1-7
			c0.1-0.1,0.1-0.1,0.2-0.2c0-0.1,0-0.1,0.1-0.2l1.4-5.6l0,0c0.1-0.1,0.1-0.3,0-0.4l-5-2.4L49.5,18l1.9,3.1l-4.8,13.4
			c0,0,2.6,8,2.7,10.9c0.1,2.9-0.4,5.2-0.4,5.2s1.5,7.5,0.7,11.8c-0.8,4.3-4,7.8-4,7.8s-6.4,5.6-21.9,0.6c0.4,0.2,0.8,0.4,1.2,0.6
			c0.1,0.1,0.3,0.1,0.4,0.2c0.3,0.1,0.5,0.2,0.8,0.4c0.2,0.1,0.4,0.1,0.5,0.2c0.2,0.1,0.5,0.2,0.7,0.3c0.2,0.1,0.4,0.1,0.6,0.2
			c0.2,0.1,0.4,0.2,0.7,0.2c0.2,0.1,0.4,0.1,0.6,0.2c0.2,0.1,0.4,0.1,0.6,0.2c0.2,0.1,0.4,0.1,0.7,0.2c0.2,0.1,0.4,0.1,0.6,0.1
			c0.2,0.1,0.5,0.1,0.7,0.2c0.2,0,0.3,0.1,0.5,0.1c0.3,0.1,0.5,0.1,0.8,0.2c0.1,0,0.2,0,0.2,0c1.5,0.3,3,0.5,4.4,0.6c0,0,0,0,0,0
			c0.4,0,0.7,0,1.1,0c0,0,0.1,0,0.1,0c0.3,0,0.7,0,1,0c0,0,0.1,0,0.1,0c0.3,0,0.7,0,1,0c0,0,0.1,0,0.1,0
			C45,74.4,48.5,73.4,51.5,71.8z"/>
		<path class="st7" d="M1.9,43.2c2.8,5.6,10.3,12.4,20.4,18.3c1.9-0.4,4.4-1.4,5.1-3.8c0.3-1,0.5-1.9,0.7-2.6
			C19,50.1,11.9,44.4,8.5,39.7C6.6,39.8,3.4,40.3,1.9,43.2z"/>
		<path class="st8" d="M14.4,36.4c0,0,2-0.9,3.3-1.5c1.4-0.6,2.8-0.1,2.8-0.1s4.5-2.6,7.3-4c2.8-1.4,8.4-2.2,8.4-2.2l8.9-11.1
			l2.7,1.8l-6.7,13l-9.1,16.9C32.1,49.1,20.2,43.9,14.4,36.4z"/>
		<path class="st9" d="M50.9,15l5.5-11.3l-4.1-1.6L49,13.3C49.4,13.9,50.1,14.5,50.9,15z"/>
		<path class="st7" d="M63.6,6.9c-0.5,0.9-3.6,0.3-7.1-1.4c-3.4-1.7-5.8-3.9-5.4-4.8c0.5-0.9,3.6-0.3,7.1,1.4
			C61.6,3.8,64.1,5.9,63.6,6.9z"/>
		<path class="st0" d="M63.7,6.5c-0.4,0.8-3.5,0-6.9-1.7c-3.4-1.7-5.9-3.7-5.5-4.5c0.4-0.8,3.5,0,6.9,1.7
			C61.6,3.8,64.1,5.8,63.7,6.5z"/>
		<path class="st10" d="M42.6,24.2c0-0.1-0.1-0.3-0.2-0.3c-0.1,0-0.2,0-0.3,0.1c-0.6,0.3-0.9,1-1.3,1.6c-0.5,0.8-1.1,1.5-1.6,2.3
			c-0.1,0.2-0.2,0.4-0.2,0.6c0.8-0.6,1.4-1.2,2-1.9c0.5-0.6,1.2-1.2,1.5-1.9C42.5,24.5,42.6,24.4,42.6,24.2z"/>
		<path class="st10" d="M55,3.8c-0.5-0.5-1.1-1-1.7-1.2c-0.1,0-0.3,0-0.4,0c-0.1,0.1,0,0.2,0.1,0.4c0.3,0.4,0.9,0.8,1.4,1.1
			c0.2,0.1,0.4,0.2,0.5,0.3c0.2,0,0.4,0,0.4-0.1C55.3,4.2,55.1,4,55,3.8z"/>
		<path class="st10" d="M46.3,17.6c0.2,0.1,0.3,0.2,0.5,0.3c0.3,0.2,1.3,0.9,1.6,0.4c0.3-0.4-0.5-1.4-0.8-1.7
			c-0.3-0.3-2.6-1.8-2.9-0.7c0,0.2,0,0.3,0.1,0.5C45.3,16.9,45.8,17.3,46.3,17.6z"/>
		<path class="st10" d="M11.9,54.9c-2.6-2.2-4.8-4.3-6.6-6.4c-0.6-0.3-0.4,0.2-0.1,0.7c0.3,0.4,0.8,0.9,1.2,1.4
			c0.9,0.9,1.9,1.8,2.9,2.7c0.6,0.5,1.2,1,1.8,1.5c0.2,0.1,0.3,0.3,0.5,0.4c0.2,0.1,0.4,0.2,0.4,0.1C12,55.2,12,55.1,11.9,54.9z"/>
	</g>
</g>
</svg>
